<?xml version="1.0" encoding="UTF-8" standalone="no"?>
<!DOCTYPE svg PUBLIC "-//W3C//DTD SVG 1.1//EN"
 "http://www.w3.org/Graphics/SVG/1.1/DTD/svg11.dtd">
<!-- Generated by graphviz version 2.40.1 (20161225.0304)
 -->
<!-- Title: dependencies Pages: 1 -->
<svg width="1204pt" height="211pt"
 viewBox="0.00 0.00 1204.00 211.00" xmlns="http://www.w3.org/2000/svg" xmlns:xlink="http://www.w3.org/1999/xlink">
<g id="graph0" class="graph" transform="scale(1 1) rotate(0) translate(4 207)">
<title>dependencies</title>
<polygon fill="#ffffff" stroke="transparent" points="-4,4 -4,-207 1200,-207 1200,4 -4,4"/>
<text text-anchor="start" x="577.0091" y="-42.4" font-family="sans-serif" font-weight="bold" font-size="14.00" fill="#000000">Legend</text>
<polygon fill="#ffffb3" stroke="transparent" points="364,-10 364,-30 384,-30 384,-10 364,-10"/>
<text text-anchor="start" x="387.629" y="-15.4" font-family="sans-serif" font-size="14.00" fill="#000000"> &#160;Declarations</text>
<polygon fill="#8dd3c7" stroke="transparent" points="477,-10 477,-30 497,-30 497,-10 477,-10"/>
<text text-anchor="start" x="500.7251" y="-15.4" font-family="sans-serif" font-size="14.00" fill="#000000"> &#160;Module</text>
<polygon fill="#80b1d3" stroke="transparent" points="563,-10 563,-30 583,-30 583,-10 563,-10"/>
<text text-anchor="start" x="586.7812" y="-15.4" font-family="sans-serif" font-size="14.00" fill="#000000"> &#160;Bootstrap</text>
<polygon fill="#fdb462" stroke="transparent" points="660,-10 660,-30 680,-30 680,-10 660,-10"/>
<text text-anchor="start" x="683.6732" y="-15.4" font-family="sans-serif" font-size="14.00" fill="#000000"> &#160;Providers</text>
<polygon fill="#fb8072" stroke="transparent" points="756,-10 756,-30 776,-30 776,-10 756,-10"/>
<text text-anchor="start" x="779.7258" y="-15.4" font-family="sans-serif" font-size="14.00" fill="#000000"> &#160;Exports</text>
<g id="clust1" class="cluster">
<title>cluster_RestaurantModule</title>
<polygon fill="none" stroke="#000000" stroke-dasharray="1,5" points="8,-70 8,-195 1188,-195 1188,-70 8,-70"/>
</g>
<g id="clust2" class="cluster">
<title>cluster_RestaurantModule_declarations</title>
<polygon fill="none" stroke="#000000" points="648,-78 648,-130 1180,-130 1180,-78 648,-78"/>
</g>
<g id="clust6" class="cluster">
<title>cluster_RestaurantModule_imports</title>
<polygon fill="none" stroke="#000000" points="344,-78 344,-130 640,-130 640,-78 344,-78"/>
</g>
<g id="clust9" class="cluster">
<title>cluster_RestaurantModule_providers</title>
<polygon fill="none" stroke="#000000" points="16,-78 16,-130 336,-130 336,-78 16,-78"/>
</g>
<!-- RestaurantComponent -->
<g id="node1" class="node">
<title>RestaurantComponent</title>
<polygon fill="#ffffb3" stroke="#000000" points="1171.6993,-122 1030.3007,-122 1030.3007,-86 1171.6993,-86 1171.6993,-122"/>
<text text-anchor="middle" x="1101" y="-99.8" font-family="Times,serif" font-size="14.00" fill="#000000">RestaurantComponent</text>
</g>
<!-- RestaurantModule -->
<g id="node4" class="node">
<title>RestaurantModule</title>
<polygon fill="#8dd3c7" stroke="#000000" points="642.9173,-187 639.9173,-191 618.9173,-191 615.9173,-187 523.0827,-187 523.0827,-151 642.9173,-151 642.9173,-187"/>
<text text-anchor="middle" x="583" y="-164.8" font-family="Times,serif" font-size="14.00" fill="#000000">RestaurantModule</text>
</g>
<!-- RestaurantComponent&#45;&gt;RestaurantModule -->
<g id="edge1" class="edge">
<title>RestaurantComponent&#45;&gt;RestaurantModule</title>
<path fill="none" stroke="#000000" d="M1101,-122.2843C1101,-143.3211 1101,-175 1101,-175 1101,-175 652.9272,-175 652.9272,-175"/>
<polygon fill="#000000" stroke="#000000" points="652.9273,-171.5001 642.9272,-175 652.9272,-178.5001 652.9273,-171.5001"/>
</g>
<!-- SearchRestaurantComponent -->
<g id="node2" class="node">
<title>SearchRestaurantComponent</title>
<polygon fill="#ffffb3" stroke="#000000" points="1012.7864,-122 833.2136,-122 833.2136,-86 1012.7864,-86 1012.7864,-122"/>
<text text-anchor="middle" x="923" y="-99.8" font-family="Times,serif" font-size="14.00" fill="#000000">SearchRestaurantComponent</text>
</g>
<!-- SearchRestaurantComponent&#45;&gt;RestaurantModule -->
<g id="edge2" class="edge">
<title>SearchRestaurantComponent&#45;&gt;RestaurantModule</title>
<path fill="none" stroke="#000000" d="M923,-122.0225C923,-139.3734 923,-163 923,-163 923,-163 653.0025,-163 653.0025,-163"/>
<polygon fill="#000000" stroke="#000000" points="653.0026,-159.5001 643.0025,-163 653.0025,-166.5001 653.0026,-159.5001"/>
</g>
<!-- TableSelectorComponent -->
<g id="node3" class="node">
<title>TableSelectorComponent</title>
<polygon fill="#ffffb3" stroke="#000000" points="815.573,-122 656.427,-122 656.427,-86 815.573,-86 815.573,-122"/>
<text text-anchor="middle" x="736" y="-99.8" font-family="Times,serif" font-size="14.00" fill="#000000">TableSelectorComponent</text>
</g>
<!-- TableSelectorComponent&#45;&gt;RestaurantModule -->
<g id="edge3" class="edge">
<title>TableSelectorComponent&#45;&gt;RestaurantModule</title>
<path fill="none" stroke="#000000" d="M656.4593,-104C645.2544,-104 637.4597,-104 637.4597,-104 637.4597,-104 637.4597,-140.8939 637.4597,-140.8939"/>
<polygon fill="#000000" stroke="#000000" points="633.9598,-140.8938 637.4597,-150.8939 640.9598,-140.8939 633.9598,-140.8938"/>
</g>
<!-- SharedModule -->
<g id="node5" class="node">
<title>SharedModule</title>
<polygon fill="#8dd3c7" stroke="#000000" points="632.4231,-122 629.4231,-126 608.4231,-126 605.4231,-122 533.5769,-122 533.5769,-86 632.4231,-86 632.4231,-122"/>
<text text-anchor="middle" x="583" y="-99.8" font-family="Times,serif" font-size="14.00" fill="#000000">SharedModule</text>
</g>
<!-- SharedModule&#45;&gt;RestaurantModule -->
<g id="edge4" class="edge">
<title>SharedModule&#45;&gt;RestaurantModule</title>
<path fill="none" stroke="#000000" d="M583,-122.1061C583,-122.1061 583,-140.991 583,-140.991"/>
<polygon fill="#000000" stroke="#000000" points="579.5001,-140.9909 583,-150.991 586.5001,-140.991 579.5001,-140.9909"/>
</g>
<!-- RestaurantRoutingModule -->
<g id="node6" class="node">
<title>RestaurantRoutingModule</title>
<polygon fill="#8dd3c7" stroke="#000000" points="516.0351,-122 513.0351,-126 492.0351,-126 489.0351,-122 351.9649,-122 351.9649,-86 516.0351,-86 516.0351,-122"/>
<text text-anchor="middle" x="434" y="-99.8" font-family="Times,serif" font-size="14.00" fill="#000000">RestaurantRoutingModule</text>
</g>
<!-- RestaurantRoutingModule&#45;&gt;RestaurantModule -->
<g id="edge5" class="edge">
<title>RestaurantRoutingModule&#45;&gt;RestaurantModule</title>
<path fill="none" stroke="#000000" d="M516.1808,-104C523.6875,-104 528.5403,-104 528.5403,-104 528.5403,-104 528.5403,-140.8939 528.5403,-140.8939"/>
<polygon fill="#000000" stroke="#000000" points="525.0404,-140.8938 528.5403,-150.8939 532.0404,-140.8939 525.0404,-140.8938"/>
</g>
<!-- RestaurantService -->
<g id="node7" class="node">
<title>RestaurantService</title>
<ellipse fill="#fdb462" stroke="#000000" cx="247" cy="-104" rx="81.0744" ry="18"/>
<text text-anchor="middle" x="247" y="-99.8" font-family="Times,serif" font-size="14.00" fill="#000000">RestaurantService</text>
</g>
<!-- RestaurantService&#45;&gt;RestaurantModule -->
<g id="edge6" class="edge">
<title>RestaurantService&#45;&gt;RestaurantModule</title>
<path fill="none" stroke="#000000" d="M247,-122.0225C247,-139.3734 247,-163 247,-163 247,-163 512.9299,-163 512.9299,-163"/>
<polygon fill="#000000" stroke="#000000" points="512.93,-166.5001 522.9299,-163 512.9299,-159.5001 512.93,-166.5001"/>
</g>
<!-- TableService -->
<g id="node8" class="node">
<title>TableService</title>
<ellipse fill="#fdb462" stroke="#000000" cx="86" cy="-104" rx="61.9538" ry="18"/>
<text text-anchor="middle" x="86" y="-99.8" font-family="Times,serif" font-size="14.00" fill="#000000">TableService</text>
</g>
<!-- TableService&#45;&gt;RestaurantModule -->
<g id="edge7" class="edge">
<title>TableService&#45;&gt;RestaurantModule</title>
<path fill="none" stroke="#000000" d="M86,-122.2843C86,-143.3211 86,-175 86,-175 86,-175 513.0502,-175 513.0502,-175"/>
<polygon fill="#000000" stroke="#000000" points="513.0502,-178.5001 523.0502,-175 513.0502,-171.5001 513.0502,-178.5001"/>
</g>
</g>
</svg>
