<?xml version="1.0" encoding="UTF-8" standalone="no"?>
<!DOCTYPE svg PUBLIC "-//W3C//DTD SVG 1.1//EN"
 "http://www.w3.org/Graphics/SVG/1.1/DTD/svg11.dtd">
<!-- Generated by graphviz version 2.40.1 (20161225.0304)
 -->
<!-- Title: dependencies Pages: 1 -->
<svg width="1161pt" height="284pt"
 viewBox="0.00 0.00 1161.00 284.00" xmlns="http://www.w3.org/2000/svg" xmlns:xlink="http://www.w3.org/1999/xlink">
<g id="graph0" class="graph" transform="scale(1 1) rotate(0) translate(4 280)">
<title>dependencies</title>
<polygon fill="#ffffff" stroke="transparent" points="-4,4 -4,-280 1157,-280 1157,4 -4,4"/>
<text text-anchor="start" x="555.5091" y="-42.4" font-family="sans-serif" font-weight="bold" font-size="14.00" fill="#000000">Legend</text>
<polygon fill="#ffffb3" stroke="transparent" points="342.5,-10 342.5,-30 362.5,-30 362.5,-10 342.5,-10"/>
<text text-anchor="start" x="366.129" y="-15.4" font-family="sans-serif" font-size="14.00" fill="#000000"> &#160;Declarations</text>
<polygon fill="#8dd3c7" stroke="transparent" points="455.5,-10 455.5,-30 475.5,-30 475.5,-10 455.5,-10"/>
<text text-anchor="start" x="479.2251" y="-15.4" font-family="sans-serif" font-size="14.00" fill="#000000"> &#160;Module</text>
<polygon fill="#80b1d3" stroke="transparent" points="541.5,-10 541.5,-30 561.5,-30 561.5,-10 541.5,-10"/>
<text text-anchor="start" x="565.2812" y="-15.4" font-family="sans-serif" font-size="14.00" fill="#000000"> &#160;Bootstrap</text>
<polygon fill="#fdb462" stroke="transparent" points="638.5,-10 638.5,-30 658.5,-30 658.5,-10 638.5,-10"/>
<text text-anchor="start" x="662.1732" y="-15.4" font-family="sans-serif" font-size="14.00" fill="#000000"> &#160;Providers</text>
<polygon fill="#fb8072" stroke="transparent" points="734.5,-10 734.5,-30 754.5,-30 754.5,-10 734.5,-10"/>
<text text-anchor="start" x="758.2258" y="-15.4" font-family="sans-serif" font-size="14.00" fill="#000000"> &#160;Exports</text>
<g id="clust1" class="cluster">
<title>cluster_AppModule</title>
<polygon fill="none" stroke="#000000" stroke-dasharray="1,5" points="8,-70 8,-268 1145,-268 1145,-70 8,-70"/>
</g>
<g id="clust2" class="cluster">
<title>cluster_AppModule_declarations</title>
<polygon fill="none" stroke="#000000" points="1015,-78 1015,-130 1137,-130 1137,-78 1015,-78"/>
</g>
<g id="clust4" class="cluster">
<title>cluster_AppModule_imports</title>
<polygon fill="none" stroke="#000000" points="16,-78 16,-130 1007,-130 1007,-78 16,-78"/>
</g>
<g id="clust6" class="cluster">
<title>cluster_AppModule_bootstrap</title>
<polygon fill="none" stroke="#000000" points="545,-208 545,-260 669,-260 669,-208 545,-208"/>
</g>
<!-- AppComponent -->
<g id="node1" class="node">
<title>AppComponent</title>
<polygon fill="#ffffb3" stroke="#000000" points="1128.9399,-122 1023.0601,-122 1023.0601,-86 1128.9399,-86 1128.9399,-122"/>
<text text-anchor="middle" x="1076" y="-99.8" font-family="Times,serif" font-size="14.00" fill="#000000">AppComponent</text>
</g>
<!-- AppModule -->
<g id="node2" class="node">
<title>AppModule</title>
<polygon fill="#8dd3c7" stroke="#000000" points="648.6571,-187 645.6571,-191 624.6571,-191 621.6571,-187 565.3429,-187 565.3429,-151 648.6571,-151 648.6571,-187"/>
<text text-anchor="middle" x="607" y="-164.8" font-family="Times,serif" font-size="14.00" fill="#000000">AppModule</text>
</g>
<!-- AppComponent&#45;&gt;AppModule -->
<g id="edge1" class="edge">
<title>AppComponent&#45;&gt;AppModule</title>
<path fill="none" stroke="#000000" d="M1076,-122.0109C1076,-144.4852 1076,-180 1076,-180 1076,-180 659.0334,-180 659.0334,-180"/>
<polygon fill="#000000" stroke="#000000" points="659.0334,-176.5001 649.0334,-180 659.0333,-183.5001 659.0334,-176.5001"/>
</g>
<!-- AppComponent  -->
<g id="node11" class="node">
<title>AppComponent </title>
<polygon fill="#80b1d3" stroke="#000000" points="661.439,-252 552.561,-252 552.561,-216 661.439,-216 661.439,-252"/>
<text text-anchor="middle" x="607" y="-229.8" font-family="Times,serif" font-size="14.00" fill="#000000">AppComponent </text>
</g>
<!-- AppModule&#45;&gt;AppComponent  -->
<g id="edge10" class="edge">
<title>AppModule&#45;&gt;AppComponent </title>
<path fill="none" stroke="#000000" stroke-dasharray="1,5" d="M607,-187.1061C607,-187.1061 607,-205.991 607,-205.991"/>
<polygon fill="#000000" stroke="#000000" points="603.5001,-205.9909 607,-215.991 610.5001,-205.991 603.5001,-205.9909"/>
</g>
<!-- CoreModule -->
<g id="node3" class="node">
<title>CoreModule</title>
<polygon fill="#8dd3c7" stroke="#000000" points="999.2619,-122 996.2619,-126 975.2619,-126 972.2619,-122 912.7381,-122 912.7381,-86 999.2619,-86 999.2619,-122"/>
<text text-anchor="middle" x="956" y="-99.8" font-family="Times,serif" font-size="14.00" fill="#000000">CoreModule</text>
</g>
<!-- CoreModule&#45;&gt;AppModule -->
<g id="edge2" class="edge">
<title>CoreModule&#45;&gt;AppModule</title>
<path fill="none" stroke="#000000" d="M956,-122.1289C956,-142.5724 956,-173 956,-173 956,-173 658.7509,-173 658.7509,-173"/>
<polygon fill="#000000" stroke="#000000" points="658.7509,-169.5001 648.7509,-173 658.7509,-176.5001 658.7509,-169.5001"/>
</g>
<!-- SharedModule -->
<g id="node4" class="node">
<title>SharedModule</title>
<polygon fill="#8dd3c7" stroke="#000000" points="894.4231,-122 891.4231,-126 870.4231,-126 867.4231,-122 795.5769,-122 795.5769,-86 894.4231,-86 894.4231,-122"/>
<text text-anchor="middle" x="845" y="-99.8" font-family="Times,serif" font-size="14.00" fill="#000000">SharedModule</text>
</g>
<!-- SharedModule&#45;&gt;AppModule -->
<g id="edge3" class="edge">
<title>SharedModule&#45;&gt;AppModule</title>
<path fill="none" stroke="#000000" d="M845,-122.2667C845,-140.5552 845,-166 845,-166 845,-166 658.7288,-166 658.7288,-166"/>
<polygon fill="#000000" stroke="#000000" points="658.7288,-162.5001 648.7288,-166 658.7287,-169.5001 658.7288,-162.5001"/>
</g>
<!-- LoginModule -->
<g id="node5" class="node">
<title>LoginModule</title>
<polygon fill="#8dd3c7" stroke="#000000" points="777.493,-122 774.493,-126 753.493,-126 750.493,-122 684.507,-122 684.507,-86 777.493,-86 777.493,-122"/>
<text text-anchor="middle" x="731" y="-99.8" font-family="Times,serif" font-size="14.00" fill="#000000">LoginModule</text>
</g>
<!-- LoginModule&#45;&gt;AppModule -->
<g id="edge4" class="edge">
<title>LoginModule&#45;&gt;AppModule</title>
<path fill="none" stroke="#000000" d="M731,-122.0091C731,-138.0494 731,-159 731,-159 731,-159 658.9807,-159 658.9807,-159"/>
<polygon fill="#000000" stroke="#000000" points="658.9808,-155.5001 648.9807,-159 658.9807,-162.5001 658.9808,-155.5001"/>
</g>
<!-- RestaurantModule -->
<g id="node6" class="node">
<title>RestaurantModule</title>
<polygon fill="#8dd3c7" stroke="#000000" points="666.9173,-122 663.9173,-126 642.9173,-126 639.9173,-122 547.0827,-122 547.0827,-86 666.9173,-86 666.9173,-122"/>
<text text-anchor="middle" x="607" y="-99.8" font-family="Times,serif" font-size="14.00" fill="#000000">RestaurantModule</text>
</g>
<!-- RestaurantModule&#45;&gt;AppModule -->
<g id="edge5" class="edge">
<title>RestaurantModule&#45;&gt;AppModule</title>
<path fill="none" stroke="#000000" d="M607,-122.1061C607,-122.1061 607,-140.991 607,-140.991"/>
<polygon fill="#000000" stroke="#000000" points="603.5001,-140.9909 607,-150.991 610.5001,-140.991 603.5001,-140.9909"/>
</g>
<!-- ReservationModule -->
<g id="node7" class="node">
<title>ReservationModule</title>
<polygon fill="#8dd3c7" stroke="#000000" points="529.4173,-122 526.4173,-126 505.4173,-126 502.4173,-122 402.5827,-122 402.5827,-86 529.4173,-86 529.4173,-122"/>
<text text-anchor="middle" x="466" y="-99.8" font-family="Times,serif" font-size="14.00" fill="#000000">ReservationModule</text>
</g>
<!-- ReservationModule&#45;&gt;AppModule -->
<g id="edge6" class="edge">
<title>ReservationModule&#45;&gt;AppModule</title>
<path fill="none" stroke="#000000" d="M466,-122.0091C466,-138.0494 466,-159 466,-159 466,-159 555.0771,-159 555.0771,-159"/>
<polygon fill="#000000" stroke="#000000" points="555.0771,-162.5001 565.0771,-159 555.0771,-155.5001 555.0771,-162.5001"/>
</g>
<!-- SettingsModule -->
<g id="node8" class="node">
<title>SettingsModule</title>
<polygon fill="#8dd3c7" stroke="#000000" points="384.1639,-122 381.1639,-126 360.1639,-126 357.1639,-122 279.8361,-122 279.8361,-86 384.1639,-86 384.1639,-122"/>
<text text-anchor="middle" x="332" y="-99.8" font-family="Times,serif" font-size="14.00" fill="#000000">SettingsModule</text>
</g>
<!-- SettingsModule&#45;&gt;AppModule -->
<g id="edge7" class="edge">
<title>SettingsModule&#45;&gt;AppModule</title>
<path fill="none" stroke="#000000" d="M332,-122.2667C332,-140.5552 332,-166 332,-166 332,-166 555.2334,-166 555.2334,-166"/>
<polygon fill="#000000" stroke="#000000" points="555.2335,-169.5001 565.2334,-166 555.2334,-162.5001 555.2335,-169.5001"/>
</g>
<!-- StaticModule -->
<g id="node9" class="node">
<title>StaticModule</title>
<polygon fill="#8dd3c7" stroke="#000000" points="261.9344,-122 258.9344,-126 237.9344,-126 234.9344,-122 170.0656,-122 170.0656,-86 261.9344,-86 261.9344,-122"/>
<text text-anchor="middle" x="216" y="-99.8" font-family="Times,serif" font-size="14.00" fill="#000000">StaticModule</text>
</g>
<!-- StaticModule&#45;&gt;AppModule -->
<g id="edge8" class="edge">
<title>StaticModule&#45;&gt;AppModule</title>
<path fill="none" stroke="#000000" d="M216,-122.1289C216,-142.5724 216,-173 216,-173 216,-173 555.1562,-173 555.1562,-173"/>
<polygon fill="#000000" stroke="#000000" points="555.1562,-176.5001 565.1562,-173 555.1561,-169.5001 555.1562,-176.5001"/>
</g>
<!-- AppRoutingModule -->
<g id="node10" class="node">
<title>AppRoutingModule</title>
<polygon fill="#8dd3c7" stroke="#000000" points="152.2744,-122 149.2744,-126 128.2744,-126 125.2744,-122 23.7256,-122 23.7256,-86 152.2744,-86 152.2744,-122"/>
<text text-anchor="middle" x="88" y="-99.8" font-family="Times,serif" font-size="14.00" fill="#000000">AppRoutingModule</text>
</g>
<!-- AppRoutingModule&#45;&gt;AppModule -->
<g id="edge9" class="edge">
<title>AppRoutingModule&#45;&gt;AppModule</title>
<path fill="none" stroke="#000000" d="M88,-122.0109C88,-144.4852 88,-180 88,-180 88,-180 554.9677,-180 554.9677,-180"/>
<polygon fill="#000000" stroke="#000000" points="554.9677,-183.5001 564.9677,-180 554.9676,-176.5001 554.9677,-183.5001"/>
</g>
</g>
</svg>
