<?xml version="1.0" encoding="UTF-8" standalone="no"?>
<!DOCTYPE svg PUBLIC "-//W3C//DTD SVG 1.1//EN"
 "http://www.w3.org/Graphics/SVG/1.1/DTD/svg11.dtd">
<!-- Generated by graphviz version 2.40.1 (20161225.0304)
 -->
<!-- Title: dependencies Pages: 1 -->
<svg width="504pt" height="211pt"
 viewBox="0.00 0.00 504.00 211.00" xmlns="http://www.w3.org/2000/svg" xmlns:xlink="http://www.w3.org/1999/xlink">
<g id="graph0" class="graph" transform="scale(1 1) rotate(0) translate(4 207)">
<title>dependencies</title>
<polygon fill="#ffffff" stroke="transparent" points="-4,4 -4,-207 500,-207 500,4 -4,4"/>
<text text-anchor="start" x="227.0091" y="-42.4" font-family="sans-serif" font-weight="bold" font-size="14.00" fill="#000000">Legend</text>
<polygon fill="#ffffb3" stroke="transparent" points="14,-10 14,-30 34,-30 34,-10 14,-10"/>
<text text-anchor="start" x="37.629" y="-15.4" font-family="sans-serif" font-size="14.00" fill="#000000"> &#160;Declarations</text>
<polygon fill="#8dd3c7" stroke="transparent" points="127,-10 127,-30 147,-30 147,-10 127,-10"/>
<text text-anchor="start" x="150.7251" y="-15.4" font-family="sans-serif" font-size="14.00" fill="#000000"> &#160;Module</text>
<polygon fill="#80b1d3" stroke="transparent" points="213,-10 213,-30 233,-30 233,-10 213,-10"/>
<text text-anchor="start" x="236.7812" y="-15.4" font-family="sans-serif" font-size="14.00" fill="#000000"> &#160;Bootstrap</text>
<polygon fill="#fdb462" stroke="transparent" points="310,-10 310,-30 330,-30 330,-10 310,-10"/>
<text text-anchor="start" x="333.6732" y="-15.4" font-family="sans-serif" font-size="14.00" fill="#000000"> &#160;Providers</text>
<polygon fill="#fb8072" stroke="transparent" points="406,-10 406,-30 426,-30 426,-10 406,-10"/>
<text text-anchor="start" x="429.7258" y="-15.4" font-family="sans-serif" font-size="14.00" fill="#000000"> &#160;Exports</text>
<g id="clust1" class="cluster">
<title>cluster_StaticModule</title>
<polygon fill="none" stroke="#000000" stroke-dasharray="1,5" points="36,-70 36,-195 460,-195 460,-70 36,-70"/>
</g>
<g id="clust2" class="cluster">
<title>cluster_StaticModule_declarations</title>
<polygon fill="none" stroke="#000000" points="320,-78 320,-130 452,-130 452,-78 320,-78"/>
</g>
<g id="clust4" class="cluster">
<title>cluster_StaticModule_imports</title>
<polygon fill="none" stroke="#000000" points="44,-78 44,-130 312,-130 312,-78 44,-78"/>
</g>
<!-- HomeComponent -->
<g id="node1" class="node">
<title>HomeComponent</title>
<polygon fill="#ffffb3" stroke="#000000" points="443.5451,-122 328.4549,-122 328.4549,-86 443.5451,-86 443.5451,-122"/>
<text text-anchor="middle" x="386" y="-99.8" font-family="Times,serif" font-size="14.00" fill="#000000">HomeComponent</text>
</g>
<!-- StaticModule -->
<g id="node2" class="node">
<title>StaticModule</title>
<polygon fill="#8dd3c7" stroke="#000000" points="300.9344,-187 297.9344,-191 276.9344,-191 273.9344,-187 209.0656,-187 209.0656,-151 300.9344,-151 300.9344,-187"/>
<text text-anchor="middle" x="255" y="-164.8" font-family="Times,serif" font-size="14.00" fill="#000000">StaticModule</text>
</g>
<!-- HomeComponent&#45;&gt;StaticModule -->
<g id="edge1" class="edge">
<title>HomeComponent&#45;&gt;StaticModule</title>
<path fill="none" stroke="#000000" d="M386,-122.1061C386,-141.3391 386,-169 386,-169 386,-169 310.8174,-169 310.8174,-169"/>
<polygon fill="#000000" stroke="#000000" points="310.8175,-165.5001 300.8174,-169 310.8174,-172.5001 310.8175,-165.5001"/>
</g>
<!-- SharedModule -->
<g id="node3" class="node">
<title>SharedModule</title>
<polygon fill="#8dd3c7" stroke="#000000" points="304.4231,-122 301.4231,-126 280.4231,-126 277.4231,-122 205.5769,-122 205.5769,-86 304.4231,-86 304.4231,-122"/>
<text text-anchor="middle" x="255" y="-99.8" font-family="Times,serif" font-size="14.00" fill="#000000">SharedModule</text>
</g>
<!-- SharedModule&#45;&gt;StaticModule -->
<g id="edge2" class="edge">
<title>SharedModule&#45;&gt;StaticModule</title>
<path fill="none" stroke="#000000" d="M255,-122.1061C255,-122.1061 255,-140.991 255,-140.991"/>
<polygon fill="#000000" stroke="#000000" points="251.5001,-140.9909 255,-150.991 258.5001,-140.991 251.5001,-140.9909"/>
</g>
<!-- StaticRoutingModule -->
<g id="node4" class="node">
<title>StaticRoutingModule</title>
<polygon fill="#8dd3c7" stroke="#000000" points="188.0519,-122 185.0519,-126 164.0519,-126 161.0519,-122 51.9481,-122 51.9481,-86 188.0519,-86 188.0519,-122"/>
<text text-anchor="middle" x="120" y="-99.8" font-family="Times,serif" font-size="14.00" fill="#000000">StaticRoutingModule</text>
</g>
<!-- StaticRoutingModule&#45;&gt;StaticModule -->
<g id="edge3" class="edge">
<title>StaticRoutingModule&#45;&gt;StaticModule</title>
<path fill="none" stroke="#000000" d="M120,-122.1061C120,-141.3391 120,-169 120,-169 120,-169 198.9182,-169 198.9182,-169"/>
<polygon fill="#000000" stroke="#000000" points="198.9183,-172.5001 208.9182,-169 198.9182,-165.5001 198.9183,-172.5001"/>
</g>
</g>
</svg>
