<?xml version="1.0" encoding="UTF-8" standalone="no"?>
<!DOCTYPE svg PUBLIC "-//W3C//DTD SVG 1.1//EN"
 "http://www.w3.org/Graphics/SVG/1.1/DTD/svg11.dtd">
<!-- Generated by graphviz version 2.40.1 (20161225.0304)
 -->
<!-- Title: dependencies Pages: 1 -->
<svg width="4368pt" height="436pt"
 viewBox="0.00 0.00 4368.00 436.00" xmlns="http://www.w3.org/2000/svg" xmlns:xlink="http://www.w3.org/1999/xlink">
<g id="graph0" class="graph" transform="scale(1 1) rotate(0) translate(4 432)">
<title>dependencies</title>
<polygon fill="#ffffff" stroke="transparent" points="-4,4 -4,-432 4364,-432 4364,4 -4,4"/>
<text text-anchor="start" x="2159.0091" y="-42.4" font-family="sans-serif" font-weight="bold" font-size="14.00" fill="#000000">Legend</text>
<polygon fill="#ffffb3" stroke="transparent" points="1946,-10 1946,-30 1966,-30 1966,-10 1946,-10"/>
<text text-anchor="start" x="1969.629" y="-15.4" font-family="sans-serif" font-size="14.00" fill="#000000"> &#160;Declarations</text>
<polygon fill="#8dd3c7" stroke="transparent" points="2059,-10 2059,-30 2079,-30 2079,-10 2059,-10"/>
<text text-anchor="start" x="2082.7251" y="-15.4" font-family="sans-serif" font-size="14.00" fill="#000000"> &#160;Module</text>
<polygon fill="#80b1d3" stroke="transparent" points="2145,-10 2145,-30 2165,-30 2165,-10 2145,-10"/>
<text text-anchor="start" x="2168.7812" y="-15.4" font-family="sans-serif" font-size="14.00" fill="#000000"> &#160;Bootstrap</text>
<polygon fill="#fdb462" stroke="transparent" points="2242,-10 2242,-30 2262,-30 2262,-10 2242,-10"/>
<text text-anchor="start" x="2265.6732" y="-15.4" font-family="sans-serif" font-size="14.00" fill="#000000"> &#160;Providers</text>
<polygon fill="#fb8072" stroke="transparent" points="2338,-10 2338,-30 2358,-30 2358,-10 2338,-10"/>
<text text-anchor="start" x="2361.7258" y="-15.4" font-family="sans-serif" font-size="14.00" fill="#000000"> &#160;Exports</text>
<g id="clust1" class="cluster">
<title>cluster_AppModule</title>
<polygon fill="none" stroke="#000000" stroke-dasharray="1,5" points="2821,-146 2821,-420 3644,-420 3644,-146 2821,-146"/>
</g>
<g id="clust2" class="cluster">
<title>cluster_AppModule_declarations</title>
<polygon fill="none" stroke="#000000" points="3514,-230 3514,-282 3636,-282 3636,-230 3514,-230"/>
</g>
<g id="clust4" class="cluster">
<title>cluster_AppModule_imports</title>
<polygon fill="none" stroke="#000000" points="2829,-154 2829,-282 3452,-282 3452,-154 2829,-154"/>
</g>
<g id="clust6" class="cluster">
<title>cluster_AppModule_bootstrap</title>
<polygon fill="none" stroke="#000000" points="3336,-360 3336,-412 3460,-412 3460,-360 3336,-360"/>
</g>
<g id="clust14" class="cluster">
<title>cluster_CoreModule</title>
<polygon fill="none" stroke="#000000" stroke-dasharray="1,5" points="3141,-70 3141,-138 3677,-138 3677,-70 3141,-70"/>
</g>
<g id="clust19" class="cluster">
<title>cluster_CoreModule_providers</title>
<polygon fill="none" stroke="#000000" points="3149,-78 3149,-130 3669,-130 3669,-78 3149,-78"/>
</g>
<g id="clust20" class="cluster">
<title>cluster_LoginModule</title>
<polygon fill="none" stroke="#000000" stroke-dasharray="1,5" points="8,-146 8,-214 679,-214 679,-146 8,-146"/>
</g>
<g id="clust21" class="cluster">
<title>cluster_LoginModule_declarations</title>
<polygon fill="none" stroke="#000000" points="178,-154 178,-206 671,-206 671,-154 178,-154"/>
</g>
<g id="clust25" class="cluster">
<title>cluster_LoginModule_imports</title>
<polygon fill="none" stroke="#000000" points="16,-154 16,-206 170,-206 170,-154 16,-154"/>
</g>
<g id="clust35" class="cluster">
<title>cluster_ReservationModule</title>
<polygon fill="none" stroke="#000000" stroke-dasharray="1,5" points="687,-146 687,-214 1259,-214 1259,-146 687,-146"/>
</g>
<g id="clust36" class="cluster">
<title>cluster_ReservationModule_declarations</title>
<polygon fill="none" stroke="#000000" points="1087,-154 1087,-206 1251,-206 1251,-154 1087,-154"/>
</g>
<g id="clust38" class="cluster">
<title>cluster_ReservationModule_imports</title>
<polygon fill="none" stroke="#000000" points="891,-154 891,-206 1079,-206 1079,-154 891,-154"/>
</g>
<g id="clust41" class="cluster">
<title>cluster_ReservationModule_providers</title>
<polygon fill="none" stroke="#000000" points="695,-154 695,-206 883,-206 883,-154 695,-154"/>
</g>
<g id="clust48" class="cluster">
<title>cluster_RestaurantModule</title>
<polygon fill="none" stroke="#000000" stroke-dasharray="1,5" points="1267,-146 1267,-214 2331,-214 2331,-146 1267,-146"/>
</g>
<g id="clust49" class="cluster">
<title>cluster_RestaurantModule_declarations</title>
<polygon fill="none" stroke="#000000" points="1791,-154 1791,-206 2323,-206 2323,-154 1791,-154"/>
</g>
<g id="clust53" class="cluster">
<title>cluster_RestaurantModule_imports</title>
<polygon fill="none" stroke="#000000" points="1603,-154 1603,-206 1783,-206 1783,-154 1603,-154"/>
</g>
<g id="clust56" class="cluster">
<title>cluster_RestaurantModule_providers</title>
<polygon fill="none" stroke="#000000" points="1275,-154 1275,-206 1595,-206 1595,-154 1275,-154"/>
</g>
<g id="clust63" class="cluster">
<title>cluster_SettingsModule</title>
<polygon fill="none" stroke="#000000" stroke-dasharray="1,5" points="2339,-146 2339,-214 2497,-214 2497,-146 2339,-146"/>
</g>
<g id="clust64" class="cluster">
<title>cluster_SettingsModule_declarations</title>
<polygon fill="none" stroke="#000000" points="2347,-154 2347,-206 2489,-206 2489,-154 2347,-154"/>
</g>
<g id="clust70" class="cluster">
<title>cluster_SharedModule</title>
<polygon fill="none" stroke="#000000" stroke-dasharray="1,5" points="3652,-222 3652,-290 4352,-290 4352,-222 3652,-222"/>
</g>
<g id="clust71" class="cluster">
<title>cluster_SharedModule_declarations</title>
<polygon fill="none" stroke="#000000" points="4009,-230 4009,-282 4344,-282 4344,-230 4009,-230"/>
</g>
<g id="clust75" class="cluster">
<title>cluster_SharedModule_exports</title>
<polygon fill="none" stroke="#000000" points="3660,-230 3660,-282 4001,-282 4001,-230 3660,-230"/>
</g>
<g id="clust78" class="cluster">
<title>cluster_StaticModule</title>
<polygon fill="none" stroke="#000000" stroke-dasharray="1,5" points="2505,-146 2505,-214 2813,-214 2813,-146 2505,-146"/>
</g>
<g id="clust79" class="cluster">
<title>cluster_StaticModule_declarations</title>
<polygon fill="none" stroke="#000000" points="2673,-154 2673,-206 2805,-206 2805,-154 2673,-154"/>
</g>
<g id="clust81" class="cluster">
<title>cluster_StaticModule_imports</title>
<polygon fill="none" stroke="#000000" points="2513,-154 2513,-206 2665,-206 2665,-154 2513,-154"/>
</g>
<!-- AppComponent -->
<g id="node1" class="node">
<title>AppComponent</title>
<polygon fill="#ffffb3" stroke="#000000" points="3627.9399,-274 3522.0601,-274 3522.0601,-238 3627.9399,-238 3627.9399,-274"/>
<text text-anchor="middle" x="3575" y="-251.8" font-family="Times,serif" font-size="14.00" fill="#000000">AppComponent</text>
</g>
<!-- AppModule -->
<g id="node2" class="node">
<title>AppModule</title>
<polygon fill="#8dd3c7" stroke="#000000" points="3439.6571,-339 3436.6571,-343 3415.6571,-343 3412.6571,-339 3356.3429,-339 3356.3429,-303 3439.6571,-303 3439.6571,-339"/>
<text text-anchor="middle" x="3398" y="-316.8" font-family="Times,serif" font-size="14.00" fill="#000000">AppModule</text>
</g>
<!-- AppComponent&#45;&gt;AppModule -->
<g id="edge1" class="edge">
<title>AppComponent&#45;&gt;AppModule</title>
<path fill="none" stroke="#000000" d="M3575,-274.2843C3575,-295.3211 3575,-327 3575,-327 3575,-327 3449.9465,-327 3449.9465,-327"/>
<polygon fill="#000000" stroke="#000000" points="3449.9466,-323.5001 3439.9465,-327 3449.9465,-330.5001 3449.9466,-323.5001"/>
</g>
<!-- AppComponent  -->
<g id="node11" class="node">
<title>AppComponent </title>
<polygon fill="#80b1d3" stroke="#000000" points="3452.439,-404 3343.561,-404 3343.561,-368 3452.439,-368 3452.439,-404"/>
<text text-anchor="middle" x="3398" y="-381.8" font-family="Times,serif" font-size="14.00" fill="#000000">AppComponent </text>
</g>
<!-- AppModule&#45;&gt;AppComponent  -->
<g id="edge10" class="edge">
<title>AppModule&#45;&gt;AppComponent </title>
<path fill="none" stroke="#000000" stroke-dasharray="1,5" d="M3398,-339.1061C3398,-339.1061 3398,-357.991 3398,-357.991"/>
<polygon fill="#000000" stroke="#000000" points="3394.5001,-357.9909 3398,-367.991 3401.5001,-357.991 3394.5001,-357.9909"/>
</g>
<!-- CoreModule -->
<g id="node3" class="node">
<title>CoreModule</title>
<polygon fill="#8dd3c7" stroke="#000000" points="3444.2619,-198 3441.2619,-202 3420.2619,-202 3417.2619,-198 3357.7381,-198 3357.7381,-162 3444.2619,-162 3444.2619,-198"/>
<text text-anchor="middle" x="3401" y="-175.8" font-family="Times,serif" font-size="14.00" fill="#000000">CoreModule</text>
</g>
<!-- CoreModule&#45;&gt;AppModule -->
<g id="edge2" class="edge">
<title>CoreModule&#45;&gt;AppModule</title>
<path fill="none" stroke="#000000" d="M3444.3817,-186C3446.8939,-186 3448.4252,-186 3448.4252,-186 3448.4252,-186 3448.4252,-315 3448.4252,-315 3448.4252,-315 3447.5925,-315 3447.5925,-315"/>
<polygon fill="#000000" stroke="#000000" points="3450.0985,-311.5001 3440.0985,-315 3450.0984,-318.5001 3450.0985,-311.5001"/>
</g>
<!-- SharedModule -->
<g id="node4" class="node">
<title>SharedModule</title>
<polygon fill="#8dd3c7" stroke="#000000" points="3192.4231,-198 3189.4231,-202 3168.4231,-202 3165.4231,-198 3093.5769,-198 3093.5769,-162 3192.4231,-162 3192.4231,-198"/>
<text text-anchor="middle" x="3143" y="-175.8" font-family="Times,serif" font-size="14.00" fill="#000000">SharedModule</text>
</g>
<!-- SharedModule&#45;&gt;AppModule -->
<g id="edge3" class="edge">
<title>SharedModule&#45;&gt;AppModule</title>
<path fill="none" stroke="#000000" d="M3093.6577,-189C3087.4658,-189 3083.25,-189 3083.25,-189 3083.25,-189 3083.25,-324 3083.25,-324 3083.25,-324 3346.2036,-324 3346.2036,-324"/>
<polygon fill="#000000" stroke="#000000" points="3346.2037,-327.5001 3356.2036,-324 3346.2036,-320.5001 3346.2037,-327.5001"/>
</g>
<!-- LoginModule -->
<g id="node5" class="node">
<title>LoginModule</title>
<polygon fill="#8dd3c7" stroke="#000000" points="2929.493,-274 2926.493,-278 2905.493,-278 2902.493,-274 2836.507,-274 2836.507,-238 2929.493,-238 2929.493,-274"/>
<text text-anchor="middle" x="2883" y="-251.8" font-family="Times,serif" font-size="14.00" fill="#000000">LoginModule</text>
</g>
<!-- SharedModule&#45;&gt;LoginModule -->
<g id="edge17" class="edge">
<title>SharedModule&#45;&gt;LoginModule</title>
<path fill="none" stroke="#000000" d="M3093.484,-171C3018.0474,-171 2883,-171 2883,-171 2883,-171 2883,-227.9737 2883,-227.9737"/>
<polygon fill="#000000" stroke="#000000" points="2879.5001,-227.9737 2883,-237.9737 2886.5001,-227.9737 2879.5001,-227.9737"/>
</g>
<!-- RestaurantModule -->
<g id="node6" class="node">
<title>RestaurantModule</title>
<polygon fill="#8dd3c7" stroke="#000000" points="3211.9173,-274 3208.9173,-278 3187.9173,-278 3184.9173,-274 3092.0827,-274 3092.0827,-238 3211.9173,-238 3211.9173,-274"/>
<text text-anchor="middle" x="3152" y="-251.8" font-family="Times,serif" font-size="14.00" fill="#000000">RestaurantModule</text>
</g>
<!-- SharedModule&#45;&gt;RestaurantModule -->
<g id="edge26" class="edge">
<title>SharedModule&#45;&gt;RestaurantModule</title>
<path fill="none" stroke="#000000" d="M3143,-198.0109C3143,-198.0109 3143,-227.855 3143,-227.855"/>
<polygon fill="#000000" stroke="#000000" points="3139.5001,-227.8549 3143,-237.855 3146.5001,-227.855 3139.5001,-227.8549"/>
</g>
<!-- ReservationModule -->
<g id="node7" class="node">
<title>ReservationModule</title>
<polygon fill="#8dd3c7" stroke="#000000" points="3074.4173,-274 3071.4173,-278 3050.4173,-278 3047.4173,-274 2947.5827,-274 2947.5827,-238 3074.4173,-238 3074.4173,-274"/>
<text text-anchor="middle" x="3011" y="-251.8" font-family="Times,serif" font-size="14.00" fill="#000000">ReservationModule</text>
</g>
<!-- SharedModule&#45;&gt;ReservationModule -->
<g id="edge20" class="edge">
<title>SharedModule&#45;&gt;ReservationModule</title>
<path fill="none" stroke="#000000" d="M3093.7583,-180C3070.9968,-180 3048.925,-180 3048.925,-180 3048.925,-180 3048.925,-227.9891 3048.925,-227.9891"/>
<polygon fill="#000000" stroke="#000000" points="3045.4251,-227.989 3048.925,-237.9891 3052.4251,-227.9891 3045.4251,-227.989"/>
</g>
<!-- SettingsModule -->
<g id="node8" class="node">
<title>SettingsModule</title>
<polygon fill="#8dd3c7" stroke="#000000" points="3334.1639,-274 3331.1639,-278 3310.1639,-278 3307.1639,-274 3229.8361,-274 3229.8361,-238 3334.1639,-238 3334.1639,-274"/>
<text text-anchor="middle" x="3282" y="-251.8" font-family="Times,serif" font-size="14.00" fill="#000000">SettingsModule</text>
</g>
<!-- SharedModule&#45;&gt;SettingsModule -->
<g id="edge31" class="edge">
<title>SharedModule&#45;&gt;SettingsModule</title>
<path fill="none" stroke="#000000" d="M3164.0905,-198.32C3164.0905,-206.7883 3164.0905,-215 3164.0905,-215 3164.0905,-215 3299.4439,-215 3299.4439,-215 3299.4439,-215 3299.4439,-227.8975 3299.4439,-227.8975"/>
<polygon fill="#000000" stroke="#000000" points="3295.944,-227.8974 3299.4439,-237.8975 3302.944,-227.8975 3295.944,-227.8974"/>
</g>
<!-- StaticModule -->
<g id="node9" class="node">
<title>StaticModule</title>
<polygon fill="#8dd3c7" stroke="#000000" points="3443.9344,-274 3440.9344,-278 3419.9344,-278 3416.9344,-274 3352.0656,-274 3352.0656,-238 3443.9344,-238 3443.9344,-274"/>
<text text-anchor="middle" x="3398" y="-251.8" font-family="Times,serif" font-size="14.00" fill="#000000">StaticModule</text>
</g>
<!-- SharedModule&#45;&gt;StaticModule -->
<g id="edge37" class="edge">
<title>SharedModule&#45;&gt;StaticModule</title>
<path fill="none" stroke="#000000" d="M3171.1206,-198.2015C3171.1206,-204.028 3171.1206,-209 3171.1206,-209 3171.1206,-209 3422.1923,-209 3422.1923,-209 3422.1923,-209 3422.1923,-227.963 3422.1923,-227.963"/>
<polygon fill="#000000" stroke="#000000" points="3418.6924,-227.963 3422.1923,-237.963 3425.6924,-227.963 3418.6924,-227.963"/>
</g>
<!-- BigInputComponent  -->
<g id="node31" class="node">
<title>BigInputComponent </title>
<polygon fill="#fb8072" stroke="#000000" points="3802.1114,-274 3667.8886,-274 3667.8886,-238 3802.1114,-238 3802.1114,-274"/>
<text text-anchor="middle" x="3735" y="-251.8" font-family="Times,serif" font-size="14.00" fill="#000000">BigInputComponent </text>
</g>
<!-- SharedModule&#45;&gt;BigInputComponent  -->
<g id="edge34" class="edge">
<title>SharedModule&#45;&gt;BigInputComponent </title>
<path fill="none" stroke="#000000" stroke-dasharray="5,2" d="M3178.1508,-198.1592C3178.1508,-203.0433 3178.1508,-207 3178.1508,-207 3178.1508,-207 3735,-207 3735,-207 3735,-207 3735,-227.7542 3735,-227.7542"/>
<polygon fill="#000000" stroke="#000000" points="3731.5001,-227.7542 3735,-237.7542 3738.5001,-227.7542 3731.5001,-227.7542"/>
</g>
<!-- BigInputActionComponent  -->
<g id="node32" class="node">
<title>BigInputActionComponent </title>
<polygon fill="#fb8072" stroke="#000000" points="3993.2134,-274 3820.7866,-274 3820.7866,-238 3993.2134,-238 3993.2134,-274"/>
<text text-anchor="middle" x="3907" y="-251.8" font-family="Times,serif" font-size="14.00" fill="#000000">BigInputActionComponent </text>
</g>
<!-- SharedModule&#45;&gt;BigInputActionComponent  -->
<g id="edge35" class="edge">
<title>SharedModule&#45;&gt;BigInputActionComponent </title>
<path fill="none" stroke="#000000" stroke-dasharray="5,2" d="M3185.1809,-198.1686C3185.1809,-202.0459 3185.1809,-205 3185.1809,-205 3185.1809,-205 3907,-205 3907,-205 3907,-205 3907,-227.8757 3907,-227.8757"/>
<polygon fill="#000000" stroke="#000000" points="3903.5001,-227.8757 3907,-237.8757 3910.5001,-227.8757 3903.5001,-227.8757"/>
</g>
<!-- LoginModule&#45;&gt;AppModule -->
<g id="edge4" class="edge">
<title>LoginModule&#45;&gt;AppModule</title>
<path fill="none" stroke="#000000" d="M2883,-274.0908C2883,-297.1328 2883,-334 2883,-334 2883,-334 3346.2916,-334 3346.2916,-334"/>
<polygon fill="#000000" stroke="#000000" points="3346.2917,-337.5001 3356.2916,-334 3346.2916,-330.5001 3346.2917,-337.5001"/>
</g>
<!-- RestaurantModule&#45;&gt;AppModule -->
<g id="edge5" class="edge">
<title>RestaurantModule&#45;&gt;AppModule</title>
<path fill="none" stroke="#000000" d="M3152,-274.2222C3152,-292.8285 3152,-319 3152,-319 3152,-319 3346.2695,-319 3346.2695,-319"/>
<polygon fill="#000000" stroke="#000000" points="3346.2695,-322.5001 3356.2695,-319 3346.2694,-315.5001 3346.2695,-322.5001"/>
</g>
<!-- ReservationModule&#45;&gt;AppModule -->
<g id="edge6" class="edge">
<title>ReservationModule&#45;&gt;AppModule</title>
<path fill="none" stroke="#000000" d="M3011,-274.0449C3011,-295.6623 3011,-329 3011,-329 3011,-329 3346.2165,-329 3346.2165,-329"/>
<polygon fill="#000000" stroke="#000000" points="3346.2166,-332.5001 3356.2165,-329 3346.2165,-325.5001 3346.2166,-332.5001"/>
</g>
<!-- SettingsModule&#45;&gt;AppModule -->
<g id="edge7" class="edge">
<title>SettingsModule&#45;&gt;AppModule</title>
<path fill="none" stroke="#000000" d="M3282,-274.2396C3282,-289.5706 3282,-309 3282,-309 3282,-309 3346.1213,-309 3346.1213,-309"/>
<polygon fill="#000000" stroke="#000000" points="3346.1214,-312.5001 3356.1213,-309 3346.1213,-305.5001 3346.1214,-312.5001"/>
</g>
<!-- StaticModule&#45;&gt;AppModule -->
<g id="edge8" class="edge">
<title>StaticModule&#45;&gt;AppModule</title>
<path fill="none" stroke="#000000" d="M3398,-274.1061C3398,-274.1061 3398,-292.991 3398,-292.991"/>
<polygon fill="#000000" stroke="#000000" points="3394.5001,-292.9909 3398,-302.991 3401.5001,-292.991 3394.5001,-292.9909"/>
</g>
<!-- AppRoutingModule -->
<g id="node10" class="node">
<title>AppRoutingModule</title>
<polygon fill="#8dd3c7" stroke="#000000" points="3339.2744,-198 3336.2744,-202 3315.2744,-202 3312.2744,-198 3210.7256,-198 3210.7256,-162 3339.2744,-162 3339.2744,-198"/>
<text text-anchor="middle" x="3275" y="-175.8" font-family="Times,serif" font-size="14.00" fill="#000000">AppRoutingModule</text>
</g>
<!-- AppRoutingModule&#45;&gt;AppModule -->
<g id="edge9" class="edge">
<title>AppRoutingModule&#45;&gt;AppModule</title>
<path fill="none" stroke="#000000" d="M3220.6883,-198.0718C3220.6883,-234.6481 3220.6883,-314 3220.6883,-314 3220.6883,-314 3345.9796,-314 3345.9796,-314"/>
<polygon fill="#000000" stroke="#000000" points="3345.9796,-317.5001 3355.9796,-314 3345.9796,-310.5001 3345.9796,-317.5001"/>
</g>
<!-- LocalStorageService -->
<g id="node12" class="node">
<title>LocalStorageService</title>
<ellipse fill="#fdb462" stroke="#000000" cx="3570" cy="-104" rx="91.4481" ry="18"/>
<text text-anchor="middle" x="3570" y="-99.8" font-family="Times,serif" font-size="14.00" fill="#000000">LocalStorageService</text>
</g>
<!-- LocalStorageService&#45;&gt;CoreModule -->
<g id="edge11" class="edge">
<title>LocalStorageService&#45;&gt;CoreModule</title>
<path fill="none" stroke="#000000" d="M3500.4032,-115.8745C3500.4032,-135.8459 3500.4032,-174 3500.4032,-174 3500.4032,-174 3454.3105,-174 3454.3105,-174"/>
<polygon fill="#000000" stroke="#000000" points="3454.3106,-170.5001 3444.3105,-174 3454.3105,-177.5001 3454.3106,-170.5001"/>
</g>
<!-- AuthService -->
<g id="node13" class="node">
<title>AuthService</title>
<ellipse fill="#fdb462" stroke="#000000" cx="3401" cy="-104" rx="59.1083" ry="18"/>
<text text-anchor="middle" x="3401" y="-99.8" font-family="Times,serif" font-size="14.00" fill="#000000">AuthService</text>
</g>
<!-- AuthService&#45;&gt;CoreModule -->
<g id="edge12" class="edge">
<title>AuthService&#45;&gt;CoreModule</title>
<path fill="none" stroke="#000000" d="M3415.4603,-121.627C3415.4603,-121.627 3415.4603,-151.9409 3415.4603,-151.9409"/>
<polygon fill="#000000" stroke="#000000" points="3411.9604,-151.9408 3415.4603,-161.9409 3418.9604,-151.9409 3411.9604,-151.9408"/>
</g>
<!-- AuthGuardService -->
<g id="node14" class="node">
<title>AuthGuardService</title>
<ellipse fill="#fdb462" stroke="#000000" cx="3240" cy="-104" rx="83.3674" ry="18"/>
<text text-anchor="middle" x="3240" y="-99.8" font-family="Times,serif" font-size="14.00" fill="#000000">AuthGuardService</text>
</g>
<!-- AuthGuardService&#45;&gt;CoreModule -->
<g id="edge13" class="edge">
<title>AuthGuardService&#45;&gt;CoreModule</title>
<path fill="none" stroke="#000000" d="M3267.0233,-121.2211C3267.0233,-131.2754 3267.0233,-142 3267.0233,-142 3267.0233,-142 3386.5397,-142 3386.5397,-142 3386.5397,-142 3386.5397,-151.8903 3386.5397,-151.8903"/>
<polygon fill="#000000" stroke="#000000" points="3383.0398,-151.8903 3386.5397,-161.8903 3390.0398,-151.8904 3383.0398,-151.8903"/>
</g>
<!-- SignUpComponent -->
<g id="node15" class="node">
<title>SignUpComponent</title>
<polygon fill="#ffffb3" stroke="#000000" points="310.1123,-198 185.8877,-198 185.8877,-162 310.1123,-162 310.1123,-198"/>
<text text-anchor="middle" x="248" y="-175.8" font-family="Times,serif" font-size="14.00" fill="#000000">SignUpComponent</text>
</g>
<!-- SignUpComponent&#45;&gt;LoginModule -->
<g id="edge14" class="edge">
<title>SignUpComponent&#45;&gt;LoginModule</title>
<path fill="none" stroke="#000000" d="M248,-198.1532C248,-221.7566 248,-260 248,-260 248,-260 2826.4271,-260 2826.4271,-260"/>
<polygon fill="#000000" stroke="#000000" points="2826.4271,-263.5001 2836.4271,-260 2826.4271,-256.5001 2826.4271,-263.5001"/>
</g>
<!-- SignInComponent -->
<g id="node16" class="node">
<title>SignInComponent</title>
<polygon fill="#ffffb3" stroke="#000000" points="663.1667,-198 544.8333,-198 544.8333,-162 663.1667,-162 663.1667,-198"/>
<text text-anchor="middle" x="604" y="-175.8" font-family="Times,serif" font-size="14.00" fill="#000000">SignInComponent</text>
</g>
<!-- SignInComponent&#45;&gt;LoginModule -->
<g id="edge15" class="edge">
<title>SignInComponent&#45;&gt;LoginModule</title>
<path fill="none" stroke="#000000" d="M604,-198.0348C604,-217.5762 604,-246 604,-246 604,-246 2826.4434,-246 2826.4434,-246"/>
<polygon fill="#000000" stroke="#000000" points="2826.4434,-249.5001 2836.4434,-246 2826.4434,-242.5001 2826.4434,-249.5001"/>
</g>
<!-- EmailPasswordFormComponent -->
<g id="node17" class="node">
<title>EmailPasswordFormComponent</title>
<polygon fill="#ffffb3" stroke="#000000" points="526.2589,-198 327.7411,-198 327.7411,-162 526.2589,-162 526.2589,-198"/>
<text text-anchor="middle" x="427" y="-175.8" font-family="Times,serif" font-size="14.00" fill="#000000">EmailPasswordFormComponent</text>
</g>
<!-- EmailPasswordFormComponent&#45;&gt;LoginModule -->
<g id="edge16" class="edge">
<title>EmailPasswordFormComponent&#45;&gt;LoginModule</title>
<path fill="none" stroke="#000000" d="M427,-198.0449C427,-219.6623 427,-253 427,-253 427,-253 2826.4018,-253 2826.4018,-253"/>
<polygon fill="#000000" stroke="#000000" points="2826.4018,-256.5001 2836.4018,-253 2826.4017,-249.5001 2826.4018,-256.5001"/>
</g>
<!-- LoginRoutingModule -->
<g id="node18" class="node">
<title>LoginRoutingModule</title>
<polygon fill="#8dd3c7" stroke="#000000" points="162.1108,-198 159.1108,-202 138.1108,-202 135.1108,-198 23.8892,-198 23.8892,-162 162.1108,-162 162.1108,-198"/>
<text text-anchor="middle" x="93" y="-175.8" font-family="Times,serif" font-size="14.00" fill="#000000">LoginRoutingModule</text>
</g>
<!-- LoginRoutingModule&#45;&gt;LoginModule -->
<g id="edge18" class="edge">
<title>LoginRoutingModule&#45;&gt;LoginModule</title>
<path fill="none" stroke="#000000" d="M93,-198.0265C93,-223.5093 93,-267 93,-267 93,-267 2826.3252,-267 2826.3252,-267"/>
<polygon fill="#000000" stroke="#000000" points="2826.3253,-270.5001 2836.3252,-267 2826.3252,-263.5001 2826.3253,-270.5001"/>
</g>
<!-- ReservationComponent -->
<g id="node19" class="node">
<title>ReservationComponent</title>
<polygon fill="#ffffb3" stroke="#000000" points="1243.1993,-198 1094.8007,-198 1094.8007,-162 1243.1993,-162 1243.1993,-198"/>
<text text-anchor="middle" x="1169" y="-175.8" font-family="Times,serif" font-size="14.00" fill="#000000">ReservationComponent</text>
</g>
<!-- ReservationComponent&#45;&gt;ReservationModule -->
<g id="edge19" class="edge">
<title>ReservationComponent&#45;&gt;ReservationModule</title>
<path fill="none" stroke="#000000" d="M1169,-198.1871C1169,-213.1824 1169,-232 1169,-232 1169,-232 3023.6417,-232 3023.6417,-232 3023.6417,-232 3023.6417,-232.581 3023.6417,-232.581"/>
<polygon fill="#000000" stroke="#000000" points="3020.1419,-227.8097 3023.6417,-237.8097 3027.1419,-227.8098 3020.1419,-227.8097"/>
</g>
<!-- ReservationRoutingModule -->
<g id="node20" class="node">
<title>ReservationRoutingModule</title>
<polygon fill="#8dd3c7" stroke="#000000" points="1070.535,-198 1067.535,-202 1046.535,-202 1043.535,-198 899.465,-198 899.465,-162 1070.535,-162 1070.535,-198"/>
<text text-anchor="middle" x="985" y="-175.8" font-family="Times,serif" font-size="14.00" fill="#000000">ReservationRoutingModule</text>
</g>
<!-- ReservationRoutingModule&#45;&gt;ReservationModule -->
<g id="edge21" class="edge">
<title>ReservationRoutingModule&#45;&gt;ReservationModule</title>
<path fill="none" stroke="#000000" d="M985,-198.2819C985,-213.9478 985,-234 985,-234 985,-234 2998.3583,-234 2998.3583,-234 2998.3583,-234 2998.3583,-234.3832 2998.3583,-234.3832"/>
<polygon fill="#000000" stroke="#000000" points="2994.8586,-227.832 2998.3583,-237.8321 3001.8586,-227.8322 2994.8586,-227.832"/>
</g>
<!-- ReservationService -->
<g id="node21" class="node">
<title>ReservationService</title>
<ellipse fill="#fdb462" stroke="#000000" cx="789" cy="-180" rx="86.2309" ry="18"/>
<text text-anchor="middle" x="789" y="-175.8" font-family="Times,serif" font-size="14.00" fill="#000000">ReservationService</text>
</g>
<!-- ReservationService&#45;&gt;ReservationModule -->
<g id="edge22" class="edge">
<title>ReservationService&#45;&gt;ReservationModule</title>
<path fill="none" stroke="#000000" d="M789,-198.027C789,-214.3976 789,-236 789,-236 789,-236 2973.075,-236 2973.075,-236 2973.075,-236 2973.075,-236.1846 2973.075,-236.1846"/>
<polygon fill="#000000" stroke="#000000" points="2969.5756,-227.8455 2973.075,-237.8457 2976.5756,-227.8459 2969.5756,-227.8455"/>
</g>
<!-- RestaurantComponent -->
<g id="node22" class="node">
<title>RestaurantComponent</title>
<polygon fill="#ffffb3" stroke="#000000" points="1940.6993,-198 1799.3007,-198 1799.3007,-162 1940.6993,-162 1940.6993,-198"/>
<text text-anchor="middle" x="1870" y="-175.8" font-family="Times,serif" font-size="14.00" fill="#000000">RestaurantComponent</text>
</g>
<!-- RestaurantComponent&#45;&gt;RestaurantModule -->
<g id="edge23" class="edge">
<title>RestaurantComponent&#45;&gt;RestaurantModule</title>
<path fill="none" stroke="#000000" d="M1870,-198.1505C1870,-210.2708 1870,-224 1870,-224 1870,-224 3121.9095,-224 3121.9095,-224 3121.9095,-224 3121.9095,-227.7566 3121.9095,-227.7566"/>
<polygon fill="#000000" stroke="#000000" points="3118.4096,-227.7566 3121.9095,-237.7566 3125.4096,-227.7566 3118.4096,-227.7566"/>
</g>
<!-- SearchRestaurantComponent -->
<g id="node23" class="node">
<title>SearchRestaurantComponent</title>
<polygon fill="#ffffb3" stroke="#000000" points="2314.7864,-198 2135.2136,-198 2135.2136,-162 2314.7864,-162 2314.7864,-198"/>
<text text-anchor="middle" x="2225" y="-175.8" font-family="Times,serif" font-size="14.00" fill="#000000">SearchRestaurantComponent</text>
</g>
<!-- SearchRestaurantComponent&#45;&gt;RestaurantModule -->
<g id="edge24" class="edge">
<title>SearchRestaurantComponent&#45;&gt;RestaurantModule</title>
<path fill="none" stroke="#000000" d="M2225,-198.1274C2225,-208.7109 2225,-220 2225,-220 2225,-220 3135.9698,-220 3135.9698,-220 3135.9698,-220 3135.9698,-227.5782 3135.9698,-227.5782"/>
<polygon fill="#000000" stroke="#000000" points="3132.4699,-227.5781 3135.9698,-237.5782 3139.4699,-227.5782 3132.4699,-227.5781"/>
</g>
<!-- TableSelectorComponent -->
<g id="node24" class="node">
<title>TableSelectorComponent</title>
<polygon fill="#ffffb3" stroke="#000000" points="2117.573,-198 1958.427,-198 1958.427,-162 2117.573,-162 2117.573,-198"/>
<text text-anchor="middle" x="2038" y="-175.8" font-family="Times,serif" font-size="14.00" fill="#000000">TableSelectorComponent</text>
</g>
<!-- TableSelectorComponent&#45;&gt;RestaurantModule -->
<g id="edge25" class="edge">
<title>TableSelectorComponent&#45;&gt;RestaurantModule</title>
<path fill="none" stroke="#000000" d="M2038,-198.0555C2038,-209.439 2038,-222 2038,-222 2038,-222 3128.9397,-222 3128.9397,-222 3128.9397,-222 3128.9397,-227.8056 3128.9397,-227.8056"/>
<polygon fill="#000000" stroke="#000000" points="3125.4398,-227.8055 3128.9397,-237.8056 3132.4398,-227.8056 3125.4398,-227.8055"/>
</g>
<!-- RestaurantRoutingModule -->
<g id="node25" class="node">
<title>RestaurantRoutingModule</title>
<polygon fill="#8dd3c7" stroke="#000000" points="1775.0351,-198 1772.0351,-202 1751.0351,-202 1748.0351,-198 1610.9649,-198 1610.9649,-162 1775.0351,-162 1775.0351,-198"/>
<text text-anchor="middle" x="1693" y="-175.8" font-family="Times,serif" font-size="14.00" fill="#000000">RestaurantRoutingModule</text>
</g>
<!-- RestaurantRoutingModule&#45;&gt;RestaurantModule -->
<g id="edge27" class="edge">
<title>RestaurantRoutingModule&#45;&gt;RestaurantModule</title>
<path fill="none" stroke="#000000" d="M1693,-198.1804C1693,-211.0382 1693,-226 1693,-226 1693,-226 3114.8794,-226 3114.8794,-226 3114.8794,-226 3114.8794,-227.8568 3114.8794,-227.8568"/>
<polygon fill="#000000" stroke="#000000" points="3111.3795,-227.8568 3114.8794,-237.8568 3118.3795,-227.8568 3111.3795,-227.8568"/>
</g>
<!-- RestaurantService -->
<g id="node26" class="node">
<title>RestaurantService</title>
<ellipse fill="#fdb462" stroke="#000000" cx="1506" cy="-180" rx="81.0744" ry="18"/>
<text text-anchor="middle" x="1506" y="-175.8" font-family="Times,serif" font-size="14.00" fill="#000000">RestaurantService</text>
</g>
<!-- RestaurantService&#45;&gt;RestaurantModule -->
<g id="edge28" class="edge">
<title>RestaurantService&#45;&gt;RestaurantModule</title>
<path fill="none" stroke="#000000" d="M1506,-198.1467C1506,-211.7395 1506,-228 1506,-228 1506,-228 3107.8492,-228 3107.8492,-228 3107.8492,-228 3107.8492,-228.9793 3107.8492,-228.9793"/>
<polygon fill="#000000" stroke="#000000" points="3104.3493,-227.793 3107.8492,-237.793 3111.3493,-227.7931 3104.3493,-227.793"/>
</g>
<!-- TableService -->
<g id="node27" class="node">
<title>TableService</title>
<ellipse fill="#fdb462" stroke="#000000" cx="1345" cy="-180" rx="61.9538" ry="18"/>
<text text-anchor="middle" x="1345" y="-175.8" font-family="Times,serif" font-size="14.00" fill="#000000">TableService</text>
</g>
<!-- TableService&#45;&gt;RestaurantModule -->
<g id="edge29" class="edge">
<title>TableService&#45;&gt;RestaurantModule</title>
<path fill="none" stroke="#000000" d="M1345,-198.0511C1345,-212.373 1345,-230 1345,-230 1345,-230 3100.8191,-230 3100.8191,-230 3100.8191,-230 3100.8191,-230.7942 3100.8191,-230.7942"/>
<polygon fill="#000000" stroke="#000000" points="3097.3192,-227.9421 3100.8191,-237.9421 3104.3192,-227.9422 3097.3192,-227.9421"/>
</g>
<!-- SettingsComponent -->
<g id="node28" class="node">
<title>SettingsComponent</title>
<polygon fill="#ffffb3" stroke="#000000" points="2481.4468,-198 2354.5532,-198 2354.5532,-162 2481.4468,-162 2481.4468,-198"/>
<text text-anchor="middle" x="2418" y="-175.8" font-family="Times,serif" font-size="14.00" fill="#000000">SettingsComponent</text>
</g>
<!-- SettingsComponent&#45;&gt;SettingsModule -->
<g id="edge30" class="edge">
<title>SettingsComponent&#45;&gt;SettingsModule</title>
<path fill="none" stroke="#000000" d="M2418,-198.0664C2418,-207.4587 2418,-217 2418,-217 2418,-217 3264.5561,-217 3264.5561,-217 3264.5561,-217 3264.5561,-227.8701 3264.5561,-227.8701"/>
<polygon fill="#000000" stroke="#000000" points="3261.0562,-227.8701 3264.5561,-237.8701 3268.0562,-227.8701 3261.0562,-227.8701"/>
</g>
<!-- BigInputComponent -->
<g id="node29" class="node">
<title>BigInputComponent</title>
<polygon fill="#ffffb3" stroke="#000000" points="4148.6108,-274 4017.3892,-274 4017.3892,-238 4148.6108,-238 4148.6108,-274"/>
<text text-anchor="middle" x="4083" y="-251.8" font-family="Times,serif" font-size="14.00" fill="#000000">BigInputComponent</text>
</g>
<!-- BigInputComponent&#45;&gt;SharedModule -->
<g id="edge32" class="edge">
<title>BigInputComponent&#45;&gt;SharedModule</title>
<path fill="none" stroke="#000000" d="M4083,-237.7604C4083,-222.4294 4083,-203 4083,-203 4083,-203 3150.0302,-203 3150.0302,-203 3150.0302,-203 3150.0302,-202.5122 3150.0302,-202.5122"/>
<polygon fill="#000000" stroke="#000000" points="3153.5304,-208.1222 3150.0302,-198.1223 3146.5304,-208.1224 3153.5304,-208.1222"/>
</g>
<!-- BigInputActionComponent -->
<g id="node30" class="node">
<title>BigInputActionComponent</title>
<polygon fill="#ffffb3" stroke="#000000" points="4335.7133,-274 4166.2867,-274 4166.2867,-238 4335.7133,-238 4335.7133,-274"/>
<text text-anchor="middle" x="4251" y="-251.8" font-family="Times,serif" font-size="14.00" fill="#000000">BigInputActionComponent</text>
</g>
<!-- BigInputActionComponent&#45;&gt;SharedModule -->
<g id="edge33" class="edge">
<title>BigInputActionComponent&#45;&gt;SharedModule</title>
<path fill="none" stroke="#000000" d="M4251,-237.9909C4251,-221.9506 4251,-201 4251,-201 4251,-201 3157.0603,-201 3157.0603,-201 3157.0603,-201 3157.0603,-200.708 3157.0603,-200.708"/>
<polygon fill="#000000" stroke="#000000" points="3160.5607,-208.0799 3157.0603,-198.08 3153.5607,-208.0802 3160.5607,-208.0799"/>
</g>
<!-- HomeComponent -->
<g id="node33" class="node">
<title>HomeComponent</title>
<polygon fill="#ffffb3" stroke="#000000" points="2796.5451,-198 2681.4549,-198 2681.4549,-162 2796.5451,-162 2796.5451,-198"/>
<text text-anchor="middle" x="2739" y="-175.8" font-family="Times,serif" font-size="14.00" fill="#000000">HomeComponent</text>
</g>
<!-- HomeComponent&#45;&gt;StaticModule -->
<g id="edge36" class="edge">
<title>HomeComponent&#45;&gt;StaticModule</title>
<path fill="none" stroke="#000000" d="M2739,-198.0328C2739,-204.8526 2739,-211 2739,-211 2739,-211 3400.668,-211 3400.668,-211 3400.668,-211 3400.668,-227.9561 3400.668,-227.9561"/>
<polygon fill="#000000" stroke="#000000" points="3397.168,-227.956 3400.668,-237.9561 3404.168,-227.9561 3397.168,-227.956"/>
</g>
<!-- StaticRoutingModule -->
<g id="node34" class="node">
<title>StaticRoutingModule</title>
<polygon fill="#8dd3c7" stroke="#000000" points="2657.0519,-198 2654.0519,-202 2633.0519,-202 2630.0519,-198 2520.9481,-198 2520.9481,-162 2657.0519,-162 2657.0519,-198"/>
<text text-anchor="middle" x="2589" y="-175.8" font-family="Times,serif" font-size="14.00" fill="#000000">StaticRoutingModule</text>
</g>
<!-- StaticRoutingModule&#45;&gt;StaticModule -->
<g id="edge38" class="edge">
<title>StaticRoutingModule&#45;&gt;StaticModule</title>
<path fill="none" stroke="#000000" d="M2589,-198.0449C2589,-205.749 2589,-213 2589,-213 2589,-213 3379.1436,-213 3379.1436,-213 3379.1436,-213 3379.1436,-227.5146 3379.1436,-227.5146"/>
<polygon fill="#000000" stroke="#000000" points="3375.6437,-227.5145 3379.1436,-237.5146 3382.6437,-227.5146 3375.6437,-227.5145"/>
</g>
</g>
</svg>
